<?xml version="1.0" encoding="utf-8"?>
<!-- Generator: Adobe Illustrator 16.0.0, SVG Export Plug-In . SVG Version: 6.00 Build 0)  -->
<!DOCTYPE svg PUBLIC "-//W3C//DTD SVG 1.1//EN" "http://www.w3.org/Graphics/SVG/1.1/DTD/svg11.dtd">
<svg version="1.1" id="Layer_1" xmlns="http://www.w3.org/2000/svg" xmlns:xlink="http://www.w3.org/1999/xlink" x="0px" y="0px"
	 width="52px" height="51px" viewBox="0 0 52 51" enable-background="new 0 0 52 51" xml:space="preserve">
<g>
	<defs>
		<circle id="SVGID_1_" cx="25" cy="25" r="25"/>
	</defs>
	<clipPath id="SVGID_2_">
		<use xlink:href="#SVGID_1_"  overflow="visible"/>
	</clipPath>
	<g clip-path="url(#SVGID_2_)" enable-background="new    ">
		<g>
			<defs>
				<rect id="SVGID_3_" x="-2" y="-2" width="54" height="62"/>
			</defs>
			<clipPath id="SVGID_4_">
				<use xlink:href="#SVGID_3_"  overflow="visible"/>
			</clipPath>
			<g clip-path="url(#SVGID_4_)">
				<defs>
					<path id="SVGID_5_" d="M19.727,35.059h10.545c4.828,0,9.135,3.034,10.761,7.58l2.209,6.177l3.789,10.597H2.968L6.3,50.094
						l2.666-7.455C10.592,38.093,14.899,35.059,19.727,35.059z M25,31c-5.198,0-9.412-4.24-9.412-9.471s4.214-9.471,9.412-9.471
						c5.198,0,9.412,4.24,9.412,9.471S30.198,31,25,31z"/>
				</defs>
				<clipPath id="SVGID_6_">
					<use xlink:href="#SVGID_5_"  overflow="visible"/>
				</clipPath>
				<g clip-path="url(#SVGID_6_)">
					<defs>
						<rect id="SVGID_7_" width="50" height="50"/>
					</defs>
					<clipPath id="SVGID_8_">
						<use xlink:href="#SVGID_7_"  overflow="visible"/>
					</clipPath>
					<rect x="-2.032" y="7.059" clip-path="url(#SVGID_8_)" fill="#DCE5E6" width="54.063" height="57.354"/>
				</g>
			</g>
			<g clip-path="url(#SVGID_4_)">
				<defs>
					<rect id="SVGID_9_" width="50" height="50"/>
				</defs>
				<clipPath id="SVGID_10_">
					<use xlink:href="#SVGID_9_"  overflow="visible"/>
				</clipPath>
				
					<circle clip-path="url(#SVGID_10_)" fill="none" stroke="#DCE5E6" stroke-width="3" stroke-linecap="round" stroke-linejoin="round" stroke-miterlimit="10" stroke-dasharray="4,7" cx="25" cy="25" r="23.5"/>
			</g>
		</g>
	</g>
</g>
<g>
	<defs>
		<circle id="SVGID_11_" cx="43" cy="42" r="8"/>
	</defs>
	<clipPath id="SVGID_12_">
		<use xlink:href="#SVGID_11_"  overflow="visible"/>
	</clipPath>
	<rect x="31" y="30" clip-path="url(#SVGID_12_)" fill="#5AC546" width="24" height="24"/>
</g>
<g>
	<defs>
		<path id="SVGID_13_" d="M43,49c3.866,0,7-3.134,7-7s-3.134-7-7-7s-7,3.134-7,7S39.134,49,43,49z M24,23h38v38H24V23z"/>
	</defs>
	<clipPath id="SVGID_14_">
		<use xlink:href="#SVGID_13_"  overflow="visible"/>
	</clipPath>
	
		<circle clip-path="url(#SVGID_14_)" fill="none" stroke="#FFFFFF" stroke-width="4" stroke-miterlimit="10" cx="43" cy="42" r="7"/>
</g>
<g>
	<defs>
		<path id="SVGID_15_" d="M42,43h-2c-0.553,0-1-0.447-1-1s0.447-1,1-1h2v-2c0-0.553,0.447-1,1-1s1,0.447,1,1v2h2
			c0.553,0,1,0.447,1,1s-0.447,1-1,1h-2v2c0,0.553-0.447,1-1,1s-1-0.447-1-1V43z"/>
	</defs>
	<clipPath id="SVGID_16_">
		<use xlink:href="#SVGID_15_"  overflow="visible"/>
	</clipPath>
	<rect x="34" y="33" clip-path="url(#SVGID_16_)" fill="#FFFFFF" width="18" height="18"/>
</g>
</svg>
